<svg xmlns="http://www.w3.org/2000/svg" viewBox="0 0 512 512">
  <defs>
    <linearGradient id="bg" x1="80" x2="432" y1="64" y2="448" gradientUnits="userSpaceOnUse">
      <stop offset="0" stop-color="#f7f5ef"/>
      <stop offset="1" stop-color="#dfeeda"/>
    </linearGradient>
    <linearGradient id="rim" x1="126" x2="400" y1="102" y2="420" gradientUnits="userSpaceOnUse">
      <stop offset="0" stop-color="#315b43"/>
      <stop offset="1" stop-color="#203f34"/>
    </linearGradient>
    <filter id="shadow" x="44" y="42" width="424" height="438" color-interpolation-filters="sRGB" filterUnits="userSpaceOnUse">
      <feDropShadow dx="0" dy="18" flood-color="#202326" flood-opacity=".18" stdDeviation="20"/>
    </filter>
  </defs>
  <rect width="512" height="512" rx="112" fill="url(#bg)"/>
  <path fill="#f4bda2" d="M404 342c30 0 54 24 54 54s-24 54-54 54-54-24-54-54 24-54 54-54Z" opacity=".95"/>
  <g filter="url(#shadow)">
    <circle cx="256" cy="250" r="154" fill="url(#rim)"/>
    <circle cx="256" cy="250" r="122" fill="#fffdfa"/>
    <path fill="#e7efe4" d="M256 128a122 122 0 1 1 0 244 122 122 0 0 1 0-244Zm0 26a96 96 0 1 0 0 192 96 96 0 0 0 0-192Z"/>
    <path stroke="#203f34" stroke-linecap="round" stroke-linejoin="round" stroke-width="28" d="M256 180v82l58 36"/>
    <circle cx="256" cy="250" r="15" fill="#203f34"/>
    <path stroke="#f4bda2" stroke-linecap="round" stroke-width="18" d="M184 128 154 96M328 128l30-32"/>
  </g>
  <path fill="#203f34" d="M394 374h20v44h-20z"/>
  <path fill="#203f34" d="M382 386h44v20h-44z"/>
</svg>
